<svg width="886" height="577" viewBox="0 0 886 577" fill="none" xmlns="http://www.w3.org/2000/svg">
<path d="M885.878 368.798C885.878 483.238 687.567 576.009 442.939 576.009C198.311 576.009 0 483.238 0 368.798C0 254.358 198.311 161.586 442.939 161.586C687.567 161.586 885.878 254.358 885.878 368.798Z" fill="#FCF3E6"/>
<path d="M790.827 349.787C790.827 440.079 635.072 513.275 442.939 513.275C250.806 513.275 95.0513 440.079 95.0513 349.787C95.0513 259.495 250.806 186.299 442.939 186.299C635.072 186.299 790.827 259.495 790.827 349.787Z" fill="#DCCEBB"/>
<path d="M203.426 376.318C178.294 346.373 220.582 334.876 244.868 332.871C229.494 308.139 547.66 332.871 607.818 332.871C667.975 332.871 711.422 362.281 674.659 393.028C637.896 423.775 587.097 376.318 566.376 411.744C545.655 447.17 508.892 459.201 475.471 441.154C442.051 423.107 423.335 429.123 389.914 449.843C356.493 470.564 297.673 436.475 290.989 411.744C284.304 387.012 234.842 413.749 203.426 376.318Z" fill="#C93B47"/>
<path d="M235.614 214.376C234.818 186.514 244.569 170.261 249.545 165.617C319.201 116.858 596.831 142.73 629.669 165.617C655.939 183.927 649.239 309.905 642.605 370.605C484.386 460.163 237.604 394.487 235.614 358.664C235.117 349.722 236.609 249.204 235.614 214.376Z" fill="#FFEDBB"/>
<path d="M321.067 330.865C287.378 330.865 249.992 305.911 235.509 293.433C224.146 284.652 218.799 270.039 235.509 269.37C252.22 268.702 257.567 304.797 296.335 310.812C335.103 316.828 344.461 310.812 378.55 310.812C412.64 310.812 426.676 330.865 459.429 335.544C492.181 340.223 500.87 311.481 532.286 304.797C563.702 298.112 604.475 320.17 623.859 319.502C643.243 318.833 652.601 317.496 649.927 330.865C647.254 344.233 621.185 340.891 591.775 330.865C562.365 320.839 523.597 330.865 500.87 340.891C478.144 350.917 450.739 362.949 417.987 340.891C385.234 318.833 363.177 330.865 321.067 330.865Z" fill="#E3CB86"/>
<path d="M636.635 175.566C636.635 212.937 548.868 243.232 440.602 243.232C332.336 243.232 244.57 212.937 244.57 175.566C244.57 138.195 332.336 107.9 440.602 107.9C548.868 107.9 636.635 138.195 636.635 175.566Z" fill="#C93B47"/>
<path d="M247.908 160.6C259.64 127.162 330.122 110.58 363.896 106.468C542.545 73.5779 625.203 145.526 637.869 160.6C650.534 175.675 665.199 239.4 637.869 251.049C610.538 262.697 607.205 212.677 579.208 205.825C551.211 198.972 523.214 218.844 535.213 277.087C547.211 335.33 519.881 361.368 491.884 332.589C463.886 303.81 496.55 233.918 453.887 225.696C411.225 217.473 419.224 262.697 384.561 261.327C349.898 259.957 346.565 218.158 335.233 205.825C323.9 193.491 285.238 211.306 270.572 212.677C255.907 214.047 233.243 202.398 247.908 160.6Z" fill="#A00F1B"/>
<path d="M315.051 114.968C307.565 151.33 361.84 163.54 389.913 165.099C433.361 180.473 501.539 170.447 519.586 149.726C537.633 129.005 520.923 96.9209 501.539 79.542C482.155 62.1632 464.108 64.8369 432.024 45.4528C399.94 26.0687 324.409 69.5158 315.051 114.968Z" fill="#FFE6A0"/>
<path d="M391.919 126.33C391.384 108.684 410.857 84.6655 420.66 74.862C428.013 66.7919 422.666 88.2303 414.645 102.267C406.624 116.304 407.96 124.325 411.303 135.688C414.645 147.051 420.66 165.767 409.966 164.43C399.271 163.093 392.587 148.388 391.919 126.33Z" fill="#E5C66E"/>
<path d="M341.119 112.293C347.001 80.7437 391.696 58.1513 413.308 50.7987C415.759 50.1303 420.66 49.7292 420.66 53.4724C420.66 58.1513 393.255 70.8512 375.208 86.2248C357.161 101.598 371.198 124.993 365.182 144.377C359.166 163.761 333.766 151.73 341.119 112.293Z" fill="#E6C66E"/>
<path d="M483.211 130.358C458.658 134.822 436.521 130.468 427.344 102.937C419.323 78.8739 434.717 57.2697 448.065 48.7952C448.08 48.7856 448.099 48.7786 448.121 48.774C471.828 39.819 498.486 51.4679 510.508 70.8367C522.539 90.2208 505.269 126.348 483.211 130.358Z" fill="#8B0914"/>
<path d="M483.453 101.779C473.046 95.6564 470.954 74.2291 471.209 64.2807C475.035 42.0881 504.881 81.1164 504.881 91.8301C504.881 102.544 496.463 109.431 483.453 101.779Z" fill="#C6626A"/>
<path d="M435.365 22.0577C436.969 32.7524 448.065 53.2505 453.412 62.1627C456.086 64.3016 456.754 62.1627 456.754 60.8259C434.295 30.8808 437.593 9.13502 442.049 2.00525L436.702 0C435.588 2.89647 433.761 11.3631 435.365 22.0577Z" fill="#449314"/>
</svg>
