<svg width="818" height="426" viewBox="0 0 818 426" fill="none" xmlns="http://www.w3.org/2000/svg">
<path d="M817.56 233.708C817.56 339.467 634.543 425.202 408.78 425.202C183.017 425.202 0 339.467 0 233.708C0 127.949 183.017 42.2148 408.78 42.2148C634.543 42.2148 817.56 127.949 817.56 233.708Z" fill="#FCF3E6"/>
<path d="M730.02 216.512C730.02 299.824 586.196 367.362 408.78 367.362C231.364 367.362 87.5397 299.824 87.5397 216.512C87.5397 133.2 231.364 65.6621 408.78 65.6621C586.196 65.6621 730.02 133.2 730.02 216.512Z" fill="#DCCEBB"/>
<path d="M141.877 265.45L151.949 100.136L651.448 51.5488L675.741 180.719L460.655 343.071L141.877 265.45Z" fill="#4D2C05"/>
<path d="M460.06 343.664L468.355 159.982C458.401 147.657 252.084 114.95 150.169 100.137L140.689 265.451L460.06 343.664Z" fill="#623703"/>
<path d="M470.132 159.982L150.169 100.137L345.702 0L651.445 52.1422L470.132 159.982Z" fill="#FFDCB1"/>
<path d="M465.056 257.155L144.597 186.811C136.468 178.057 141.21 162.32 144.597 155.546L465.056 219.638L658.894 92.2363L665.147 119.593L465.056 257.155Z" fill="#371F01"/>
<path d="M275.783 69.9174C285.737 50.9566 347.478 22.1204 377.105 10.0724C380.857 8.68979 389.429 6.75421 393.695 10.0724C399.028 14.22 388.363 31.4032 414.434 23.1079C440.505 14.8125 516.94 22.5154 524.051 37.3285C531.161 52.1416 485.537 99.5436 438.135 134.503C390.733 169.462 420.951 209.161 408.508 218.641C396.065 228.121 364.662 227.529 369.994 168.869C375.327 110.209 451.763 87.6931 448.8 55.1042C445.837 22.5154 374.142 62.2145 335.035 82.3604C295.929 102.506 275.783 309.297 253.267 282.041C230.751 254.785 263.34 93.6183 275.783 69.9174Z" fill="#EA853B"/>
<path d="M343.905 32.0536C347.657 27.0513 354.327 30.4904 357.192 32.8352C367.352 39.0881 350.94 50.0305 345.468 45.3409C339.997 40.6513 339.215 38.3065 343.905 32.0536Z" fill="#371F01"/>
<path d="M476.732 32.0536C480.484 27.0513 487.154 30.4904 490.02 32.8352C500.179 39.0881 483.767 50.0305 478.296 45.3409C472.824 40.6513 472.043 38.3065 476.732 32.0536Z" fill="#371F01"/>
<path d="M323.248 55.9005C324.743 53.5997 327.401 55.1815 328.543 56.26C332.591 59.1361 326.051 64.1692 323.871 62.0121C321.691 59.8551 321.38 58.7766 323.248 55.9005Z" fill="#371F01"/>
<path d="M339.617 54.338C342.008 52.0372 346.26 53.619 348.088 54.6975C354.564 57.5736 344.101 62.6067 340.613 60.4496C337.125 58.2926 336.627 57.2141 339.617 54.338Z" fill="#371F01"/>
<path d="M330.574 47.6114C331.471 46.2309 333.065 47.18 333.75 47.8271C336.179 49.5527 332.255 52.5726 330.947 51.2784C329.639 49.9841 329.453 49.337 330.574 47.6114Z" fill="#371F01"/>
<path d="M330.328 41.1231C330.926 40.2028 331.989 40.8355 332.446 41.2669C334.065 42.4173 331.449 44.4306 330.577 43.5677C329.705 42.7049 329.581 42.2735 330.328 41.1231Z" fill="#371F01"/>
<path d="M336.581 44.2481C337.179 43.3278 338.242 43.9605 338.699 44.3919C340.318 45.5423 337.702 47.5556 336.83 46.6927C335.958 45.8299 335.834 45.3985 336.581 44.2481Z" fill="#371F01"/>
<path d="M352.213 48.9375C352.811 48.0172 353.874 48.6499 354.331 49.0813C355.95 50.2318 353.334 52.245 352.462 51.3822C351.59 50.5194 351.466 50.088 352.213 48.9375Z" fill="#371F01"/>
<path d="M485.041 48.9375C485.638 48.0172 486.701 48.6499 487.158 49.0813C488.777 50.2318 486.162 52.245 485.29 51.3822C484.418 50.5194 484.293 50.088 485.041 48.9375Z" fill="#371F01"/>
<path d="M363.156 48.9375C363.754 48.0172 364.817 48.6499 365.273 49.0813C366.893 50.2318 364.277 52.245 363.405 51.3822C362.533 50.5194 362.408 50.088 363.156 48.9375Z" fill="#371F01"/>
<path d="M495.983 48.9375C496.581 48.0172 497.644 48.6499 498.101 49.0813C499.72 50.2318 497.104 52.245 496.232 51.3822C495.36 50.5194 495.236 50.088 495.983 48.9375Z" fill="#371F01"/>
<path d="M361.593 44.2481C362.19 43.3278 363.253 43.9605 363.71 44.3919C365.329 45.5423 362.714 47.5556 361.842 46.6927C360.97 45.8299 360.845 45.3985 361.593 44.2481Z" fill="#371F01"/>
<path d="M494.42 44.2481C495.018 43.3278 496.081 43.9605 496.537 44.3919C498.157 45.5423 495.541 47.5556 494.669 46.6927C493.797 45.8299 493.672 45.3985 494.42 44.2481Z" fill="#371F01"/>
<path d="M370.972 37.9961C371.57 37.0758 372.633 37.7085 373.09 38.1399C374.709 39.2904 372.093 41.3036 371.221 40.4408C370.349 39.578 370.224 39.1466 370.972 37.9961Z" fill="#371F01"/>
<path d="M503.799 37.9961C504.397 37.0758 505.46 37.7085 505.917 38.1399C507.536 39.2904 504.92 41.3036 504.048 40.4408C503.176 39.578 503.052 39.1466 503.799 37.9961Z" fill="#371F01"/>
<path d="M476.625 71.7697C474.532 69.0086 470.812 70.9068 469.213 72.2011C463.546 75.6524 472.701 81.6921 475.753 79.1036C478.805 76.5152 479.241 75.2209 476.625 71.7697Z" fill="#371F01"/>
<path d="M469.636 59.2638C466.646 56.5028 461.331 58.401 459.047 59.6952C450.951 63.1465 464.03 69.1862 468.39 66.5978C472.75 64.0093 473.373 62.7151 469.636 59.2638Z" fill="#371F01"/>
<path d="M477.35 87.6804C476.625 86.5648 475.337 87.3318 474.783 87.8547C472.821 89.2491 475.991 91.6894 477.048 90.6436C478.105 89.5977 478.256 89.0748 477.35 87.6804Z" fill="#371F01"/>
<path d="M464.086 87.6804C463.362 86.5648 462.073 87.3318 461.52 87.8547C459.557 89.2491 462.728 91.6894 463.785 90.6436C464.841 89.5977 464.992 89.0748 464.086 87.6804Z" fill="#371F01"/>
<path d="M465.981 81.9968C465.257 80.8812 463.968 81.6482 463.414 82.1711C461.452 83.5656 464.622 86.0058 465.679 84.96C466.736 83.9142 466.887 83.3912 465.981 81.9968Z" fill="#371F01"/>
<path d="M454.613 74.4187C453.888 73.3031 452.599 74.0701 452.046 74.593C450.083 75.9874 453.254 78.4277 454.311 77.3819C455.368 76.336 455.519 75.8131 454.613 74.4187Z" fill="#371F01"/>
</svg>
