<svg width="818" height="501" viewBox="0 0 818 501" fill="none" xmlns="http://www.w3.org/2000/svg">
<path d="M817.56 308.742C817.56 414.5 634.543 500.235 408.78 500.235C183.017 500.235 0 414.5 0 308.742C0 202.983 183.017 117.248 408.78 117.248C634.543 117.248 817.56 202.983 817.56 308.742Z" fill="#FCF3E6"/>
<path d="M730.02 291.547C730.02 374.859 586.196 442.397 408.78 442.397C231.364 442.397 87.5398 374.859 87.5398 291.547C87.5398 208.235 231.364 140.697 408.78 140.697C586.196 140.697 730.02 208.235 730.02 291.547Z" fill="#DCCEBB"/>
<path d="M460.06 418.7L468.355 235.017C458.401 222.692 252.084 189.985 150.169 175.172L140.689 340.486L460.06 418.7Z" fill="#623703"/>
<path d="M456.458 418.941L463.644 233.206L652.641 124.275L679.216 224.321L456.458 418.941Z" fill="#915207"/>
<path d="M464.274 233.7L150.169 174.389L345.702 74.252L652.641 124.275L464.274 233.7Z" fill="#FFDCB1"/>
<path d="M398.617 190.813C456.827 199.252 485.882 169.095 493.134 152.962C545.643 69.8124 480.381 12.7246 440.624 1.55529C400.867 -9.61404 409.119 42.5095 376.113 58.0225C343.107 73.5354 301.1 82.2227 303.35 127.521C305.6 172.818 325.854 180.265 398.617 190.813Z" fill="#915207"/>
<path d="M465.056 332.189L144.597 261.844C136.469 253.09 141.21 237.354 144.597 230.58L465.056 294.672L661.239 155.539L668.273 181.332L465.056 332.189Z" fill="#371F01"/>
<path d="M360.738 70.6177C367.914 60.9541 380.67 67.5978 386.151 72.1276C405.581 84.2071 374.192 105.346 363.728 96.2865C353.264 87.2269 351.769 82.6971 360.738 70.6177Z" fill="#FFDCB1"/>
<path d="M415.724 32.4454C417.517 30.1446 420.706 31.7264 422.077 32.8049C426.934 35.681 419.087 40.7141 416.471 38.5571C413.855 36.4 413.481 35.3215 415.724 32.4454Z" fill="#FFDCB1"/>
<path d="M415.724 71.5255C417.517 69.2247 420.706 70.8065 422.077 71.885C426.934 74.7611 419.087 79.7942 416.471 77.6371C413.855 75.4801 413.481 74.4016 415.724 71.5255Z" fill="#FFDCB1"/>
<path d="M425.103 49.6407C426.897 47.3399 430.086 48.9217 431.456 50.0002C436.314 52.8763 428.466 57.9094 425.85 55.7524C423.234 53.5953 422.861 52.5168 425.103 49.6407Z" fill="#FFDCB1"/>
<path d="M433.991 19.4669C435.187 18.0864 437.313 19.0355 438.227 19.6826C441.465 21.4082 436.234 24.4281 434.49 23.1338C432.746 21.8396 432.496 21.1925 433.991 19.4669Z" fill="#FFDCB1"/>
<path d="M433.991 39.7891C435.187 38.4086 437.313 39.3577 438.227 40.0048C441.465 41.7305 436.234 44.7503 434.49 43.4561C432.746 42.1619 432.496 41.5148 433.991 39.7891Z" fill="#FFDCB1"/>
<path d="M415.233 160.156C416.429 158.776 418.555 159.725 419.468 160.372C422.707 162.098 417.475 165.118 415.731 163.823C413.987 162.529 413.738 161.882 415.233 160.156Z" fill="#FFDCB1"/>
<path d="M412.015 123.584C415.005 120.363 420.32 122.578 422.604 124.087C430.7 128.114 417.621 135.16 413.261 132.14C408.901 129.121 408.278 127.611 412.015 123.584Z" fill="#FFDCB1"/>
<path d="M444.688 86.6856C445.585 85.3051 447.18 86.2542 447.865 86.9013C450.294 88.627 446.37 91.6468 445.062 90.3526C443.754 89.0584 443.567 88.4113 444.688 86.6856Z" fill="#FFDCB1"/>
<path d="M327.602 92.7932C330.592 88.6516 335.907 91.4989 338.19 93.4403C346.286 98.6172 333.208 107.677 328.848 103.794C324.488 99.9114 323.865 97.9701 327.602 92.7932Z" fill="#FFDCB1"/>
<path d="M379.188 136.563C382.178 132.421 387.493 135.268 389.777 137.21C397.873 142.387 384.794 151.446 380.434 147.564C376.074 143.681 375.451 141.74 379.188 136.563Z" fill="#FFDCB1"/>
<path d="M476.733 107.087C480.484 102.085 487.154 105.524 490.02 107.868C500.179 114.121 483.767 125.064 478.296 120.374C472.825 115.684 472.043 113.34 476.733 107.087Z" fill="#FFDCB1"/>
<path d="M323.249 130.936C324.744 128.635 327.401 130.217 328.543 131.295C332.591 134.171 326.052 139.204 323.872 137.047C321.692 134.89 321.38 133.812 323.249 130.936Z" fill="#371F01"/>
<path d="M339.617 129.373C342.009 127.072 346.261 128.654 348.088 129.733C354.565 132.609 344.101 137.642 340.613 135.485C337.125 133.328 336.627 132.249 339.617 129.373Z" fill="#FFDCB1"/>
<path d="M330.574 122.647C331.471 121.266 333.065 122.215 333.75 122.862C336.179 124.588 332.256 127.608 330.948 126.314C329.64 125.019 329.453 124.372 330.574 122.647Z" fill="#371F01"/>
<path d="M330.329 116.158C330.926 115.238 331.989 115.871 332.446 116.302C334.065 117.452 331.45 119.466 330.578 118.603C329.706 117.74 329.581 117.309 330.329 116.158Z" fill="#371F01"/>
<path d="M336.581 119.285C337.179 118.365 338.242 118.998 338.699 119.429C340.318 120.579 337.702 122.593 336.83 121.73C335.958 120.867 335.834 120.436 336.581 119.285Z" fill="#371F01"/>
<path d="M352.213 123.975C352.811 123.054 353.874 123.687 354.331 124.118C355.95 125.269 353.335 127.282 352.463 126.419C351.591 125.556 351.466 125.125 352.213 123.975Z" fill="#371F01"/>
<path d="M485.041 123.975C485.639 123.054 486.702 123.687 487.158 124.118C488.778 125.269 486.162 127.282 485.29 126.419C484.418 125.556 484.293 125.125 485.041 123.975Z" fill="#371F01"/>
<path d="M363.156 123.975C363.754 123.054 364.817 123.687 365.274 124.118C366.893 125.269 364.277 127.282 363.405 126.419C362.533 125.556 362.409 125.125 363.156 123.975Z" fill="#371F01"/>
<path d="M495.983 123.975C496.581 123.054 497.644 123.687 498.101 124.118C499.72 125.269 497.104 127.282 496.232 126.419C495.36 125.556 495.236 125.125 495.983 123.975Z" fill="#371F01"/>
<path d="M361.593 119.285C362.191 118.365 363.254 118.998 363.71 119.429C365.33 120.579 362.714 122.593 361.842 121.73C360.97 120.867 360.845 120.436 361.593 119.285Z" fill="#371F01"/>
<path d="M494.42 119.285C495.018 118.365 496.081 118.998 496.538 119.429C498.157 120.579 495.541 122.593 494.669 121.73C493.797 120.867 493.673 120.436 494.42 119.285Z" fill="#371F01"/>
<path d="M370.972 113.031C371.57 112.111 372.633 112.744 373.09 113.175C374.709 114.326 372.093 116.339 371.221 115.476C370.349 114.613 370.225 114.182 370.972 113.031Z" fill="#371F01"/>
<path d="M503.799 113.031C504.397 112.111 505.46 112.744 505.917 113.175C507.536 114.326 504.92 116.339 504.048 115.476C503.176 114.613 503.052 114.182 503.799 113.031Z" fill="#371F01"/>
<path d="M476.625 146.805C474.532 144.044 470.812 145.942 469.213 147.236C463.546 150.688 472.701 156.727 475.753 154.139C478.805 151.55 479.241 150.256 476.625 146.805Z" fill="#FFDCB1"/>
<path d="M469.636 134.299C466.647 131.538 461.332 133.436 459.048 134.73C450.952 138.182 464.031 144.221 468.391 141.633C472.75 139.044 473.373 137.75 469.636 134.299Z" fill="#FFDCB1"/>
<path d="M477.35 162.716C476.626 161.6 475.337 162.367 474.783 162.89C472.821 164.284 475.991 166.725 477.048 165.679C478.105 164.633 478.256 164.11 477.35 162.716Z" fill="#371F01"/>
<path d="M464.087 162.716C463.362 161.6 462.074 162.367 461.52 162.89C459.557 164.284 462.728 166.725 463.785 165.679C464.842 164.633 464.993 164.11 464.087 162.716Z" fill="#371F01"/>
<path d="M465.982 157.032C465.257 155.916 463.968 156.683 463.415 157.206C461.452 158.601 464.623 161.041 465.68 159.995C466.737 158.949 466.888 158.426 465.982 157.032Z" fill="#371F01"/>
<path d="M454.613 149.452C453.888 148.336 452.6 149.103 452.046 149.626C450.083 151.021 453.254 153.461 454.311 152.415C455.368 151.369 455.519 150.846 454.613 149.452Z" fill="#371F01"/>
</svg>
